<?xml version="1.0" encoding="UTF-8"?>
<!DOCTYPE svg PUBLIC "-//W3C//DTD SVG 1.1//EN" "http://www.w3.org/Graphics/SVG/1.1/DTD/svg11.dtd">
<!-- Creator: CorelDRAW 2017 -->
<svg xmlns="http://www.w3.org/2000/svg" xml:space="preserve" width="126.842mm" height="87.3267mm" version="1.1" style="shape-rendering:geometricPrecision; text-rendering:geometricPrecision; image-rendering:optimizeQuality; fill-rule:evenodd; clip-rule:evenodd"
viewBox="0 0 2850 1962"
 xmlns:xlink="http://www.w3.org/1999/xlink">
 <defs>
  <style type="text/css">
   <![CDATA[
    .fil0 {fill:#2B2A29}
   ]]>
  </style>
 </defs>
 <g id="Layer_x0020_1">
  <metadata id="CorelCorpID_0Corel-Layer"/>
  <g id="_2142426073392">
   <path class="fil0" d="M1512 1421c-57,-71 -395,-792 -433,-899 -64,43 -91,144 -125,216 -51,107 -281,636 -338,683 -301,-339 -372,-858 -355,-1417l-256 -1c-27,707 71,1244 515,1774 55,66 100,137 169,156 129,-224 248,-578 379,-760 64,122 336,710 389,765 182,-104 432,-551 521,-778 128,-325 190,-765 143,-1149l-244 -10c-34,224 40,401 -69,822 -51,195 -178,509 -296,599z"/>
   <path class="fil0" d="M2245 331c641,475 338,1344 -482,1363 -41,85 -159,193 -217,261 311,26 581,-15 804,-149 740,-445 619,-1447 -103,-1768l-1 293z"/>
  </g>
 </g>
</svg>
